<svg width="1024" height="1024" viewBox="0 0 1024 1024" fill="none" xmlns="http://www.w3.org/2000/svg">
<path d="M0 0H1024V1024H0V0Z" fill="#F5F5DC"/>
<rect width="800" height="800" transform="translate(112 112)" fill="#F5F5DC"/>
<path d="M145.333 145.333H278.667L368 591.667C371.048 607.013 379.397 620.799 391.585 630.61C403.773 640.421 419.023 645.633 434.667 645.333H758.667C774.31 645.633 789.561 640.421 801.748 630.61C813.936 620.799 822.285 607.013 825.333 591.667L878.667 312H312M445.333 812C445.333 830.409 430.409 845.333 412 845.333C393.59 845.333 378.667 830.409 378.667 812C378.667 793.59 393.59 778.667 412 778.667C430.409 778.667 445.333 793.59 445.333 812ZM812 812C812 830.409 797.076 845.333 778.667 845.333C760.257 845.333 745.333 830.409 745.333 812C745.333 793.59 760.257 778.667 778.667 778.667C797.076 778.667 812 793.59 812 812Z" stroke="currentColor" stroke-width="30" stroke-linecap="round" stroke-linejoin="round"/>
<rect width="218.453" height="218.453" transform="translate(512 403)" fill="#F5F5DC"/>
<path d="M705.058 547.634C699.267 561.328 690.21 573.396 678.679 582.781C667.147 592.166 653.492 598.583 638.907 601.472C624.322 604.361 609.252 603.632 595.014 599.351C580.775 595.07 567.802 587.366 557.229 576.913C546.656 566.46 538.804 553.576 534.361 539.387C529.917 525.199 529.017 510.138 531.739 495.521C534.461 480.904 540.722 467.176 549.975 455.538C559.228 443.9 571.191 434.706 584.818 428.759M712.249 512.227C712.249 500.273 709.894 488.437 705.32 477.394C700.746 466.351 694.041 456.316 685.589 447.864C677.137 439.412 667.103 432.707 656.059 428.133C645.016 423.559 633.18 421.204 621.227 421.204V512.227H712.249Z" stroke="currentColor" stroke-width="30" stroke-linecap="round" stroke-linejoin="round"/>
</svg>
